<mxfile host="app.diagrams.net" agent="Mozilla/5.0 (Windows NT 10.0; Win64; x64) AppleWebKit/537.36 (KHTML, like Gecko) Chrome/137.0.0.0 Safari/537.36" version="27.1.6">
  <diagram name="PÃ¡gina-1" id="bUz74yoLnu7ht94QflnF">
    <mxGraphModel grid="1" page="1" gridSize="10" guides="1" tooltips="1" connect="1" arrows="1" fold="1" pageScale="1" pageWidth="827" pageHeight="1169" math="0" shadow="0">
      <root>
        <mxCell id="0" />
        <mxCell id="1" parent="0" />
        <mxCell id="ES6JpQluD08p2QjP8f1x-33" value="Administrador" style="html=1;whiteSpace=wrap;" vertex="1" parent="1">
          <mxGeometry x="60.620000000000005" y="60" width="110" height="50" as="geometry" />
        </mxCell>
        <mxCell id="ES6JpQluD08p2QjP8f1x-34" value="Sistema&lt;span style=&quot;color: rgba(0, 0, 0, 0); font-family: monospace; font-size: 0px; text-align: start; text-wrap-mode: nowrap;&quot;&gt;%3CmxGraphModel%3E%3Croot%3E%3CmxCell%20id%3D%220%22%2F%3E%3CmxCell%20id%3D%221%22%20parent%3D%220%22%2F%3E%3CmxCell%20id%3D%222%22%20value%3D%22Usuario%22%20style%3D%22html%3D1%3BwhiteSpace%3Dwrap%3B%22%20vertex%3D%221%22%20parent%3D%221%22%3E%3CmxGeometry%20x%3D%2270%22%20y%3D%2240%22%20width%3D%22110%22%20height%3D%2250%22%20as%3D%22geometry%22%2F%3E%3C%2FmxCell%3E%3C%2Froot%3E%3C%2FmxGraphModel%3E&lt;/span&gt;" style="html=1;whiteSpace=wrap;" vertex="1" parent="1">
          <mxGeometry x="251.87" y="60" width="110" height="50" as="geometry" />
        </mxCell>
        <mxCell id="ES6JpQluD08p2QjP8f1x-35" value="Base de datos" style="html=1;whiteSpace=wrap;" vertex="1" parent="1">
          <mxGeometry x="460.62" y="60" width="110" height="50" as="geometry" />
        </mxCell>
        <mxCell id="ES6JpQluD08p2QjP8f1x-36" style="edgeStyle=orthogonalEdgeStyle;rounded=0;orthogonalLoop=1;jettySize=auto;html=1;exitX=0.5;exitY=0;exitDx=0;exitDy=0;dashed=1;endArrow=none;startFill=0;" edge="1" parent="1" source="ES6JpQluD08p2QjP8f1x-37" target="ES6JpQluD08p2QjP8f1x-33">
          <mxGeometry relative="1" as="geometry" />
        </mxCell>
        <mxCell id="ES6JpQluD08p2QjP8f1x-37" value="Administrador" style="html=1;whiteSpace=wrap;" vertex="1" parent="1">
          <mxGeometry x="60" y="590" width="110" height="50" as="geometry" />
        </mxCell>
        <mxCell id="ES6JpQluD08p2QjP8f1x-38" style="edgeStyle=orthogonalEdgeStyle;rounded=0;orthogonalLoop=1;jettySize=auto;html=1;exitX=0.5;exitY=0;exitDx=0;exitDy=0;dashed=1;endArrow=none;startFill=0;" edge="1" parent="1" source="ES6JpQluD08p2QjP8f1x-39" target="ES6JpQluD08p2QjP8f1x-34">
          <mxGeometry relative="1" as="geometry" />
        </mxCell>
        <mxCell id="ES6JpQluD08p2QjP8f1x-39" value="Sistema&lt;span style=&quot;color: rgba(0, 0, 0, 0); font-family: monospace; font-size: 0px; text-align: start; text-wrap-mode: nowrap;&quot;&gt;%3CmxGraphModel%3E%3Croot%3E%3CmxCell%20id%3D%220%22%2F%3E%3CmxCell%20id%3D%221%22%20parent%3D%220%22%2F%3E%3CmxCell%20id%3D%222%22%20value%3D%22Usuario%22%20style%3D%22html%3D1%3BwhiteSpace%3Dwrap%3B%22%20vertex%3D%221%22%20parent%3D%221%22%3E%3CmxGeometry%20x%3D%2270%22%20y%3D%2240%22%20width%3D%22110%22%20height%3D%2250%22%20as%3D%22geometry%22%2F%3E%3C%2FmxCell%3E%3C%2Froot%3E%3C%2FmxGraphModel%3E&lt;/span&gt;" style="html=1;whiteSpace=wrap;" vertex="1" parent="1">
          <mxGeometry x="251.88" y="590" width="110" height="50" as="geometry" />
        </mxCell>
        <mxCell id="ES6JpQluD08p2QjP8f1x-40" value="Base de datos" style="html=1;whiteSpace=wrap;" vertex="1" parent="1">
          <mxGeometry x="460" y="590" width="110" height="50" as="geometry" />
        </mxCell>
        <mxCell id="ES6JpQluD08p2QjP8f1x-41" value="" style="endArrow=none;dashed=1;html=1;rounded=0;entryX=0.5;entryY=1;entryDx=0;entryDy=0;" edge="1" parent="1" source="ES6JpQluD08p2QjP8f1x-57" target="ES6JpQluD08p2QjP8f1x-33">
          <mxGeometry width="50" height="50" relative="1" as="geometry">
            <mxPoint x="111.62" y="225" as="sourcePoint" />
            <mxPoint x="110.62" y="110" as="targetPoint" />
          </mxGeometry>
        </mxCell>
        <mxCell id="ES6JpQluD08p2QjP8f1x-42" value="" style="endArrow=none;dashed=1;html=1;rounded=0;entryX=0.5;entryY=1;entryDx=0;entryDy=0;" edge="1" parent="1" target="ES6JpQluD08p2QjP8f1x-35">
          <mxGeometry width="50" height="50" relative="1" as="geometry">
            <mxPoint x="515.62" y="230" as="sourcePoint" />
            <mxPoint x="330.62" y="130" as="targetPoint" />
          </mxGeometry>
        </mxCell>
        <mxCell id="ES6JpQluD08p2QjP8f1x-43" value="" style="endArrow=classic;html=1;rounded=0;entryX=0;entryY=0;entryDx=0;entryDy=5;entryPerimeter=0;" edge="1" parent="1" target="ES6JpQluD08p2QjP8f1x-51">
          <mxGeometry width="50" height="50" relative="1" as="geometry">
            <mxPoint x="120.62" y="155" as="sourcePoint" />
            <mxPoint x="220.62" y="130" as="targetPoint" />
          </mxGeometry>
        </mxCell>
        <mxCell id="ES6JpQluD08p2QjP8f1x-44" value="1. Ingresar apartado &quot;Encuestas&quot;" style="text;html=1;align=center;verticalAlign=middle;whiteSpace=wrap;rounded=0;" vertex="1" parent="1">
          <mxGeometry x="130.62" y="130" width="170" height="20" as="geometry" />
        </mxCell>
        <mxCell id="ES6JpQluD08p2QjP8f1x-45" value="" style="endArrow=none;dashed=1;html=1;rounded=0;entryX=0.5;entryY=1;entryDx=0;entryDy=0;" edge="1" parent="1" source="ES6JpQluD08p2QjP8f1x-53">
          <mxGeometry width="50" height="50" relative="1" as="geometry">
            <mxPoint x="516.25" y="265" as="sourcePoint" />
            <mxPoint x="516.25" y="175" as="targetPoint" />
          </mxGeometry>
        </mxCell>
        <mxCell id="ES6JpQluD08p2QjP8f1x-46" value="2. Solicitar lista de encuestas" style="text;html=1;align=center;verticalAlign=middle;whiteSpace=wrap;rounded=0;" vertex="1" parent="1">
          <mxGeometry x="347" y="175" width="136" height="20" as="geometry" />
        </mxCell>
        <mxCell id="ES6JpQluD08p2QjP8f1x-47" value="" style="endArrow=classic;html=1;rounded=0;fontSize=12;startSize=8;endSize=8;curved=1;entryX=0;entryY=0;entryDx=0;entryDy=5;entryPerimeter=0;" edge="1" parent="1">
          <mxGeometry width="50" height="50" relative="1" as="geometry">
            <mxPoint x="320" y="205" as="sourcePoint" />
            <mxPoint x="510" y="205" as="targetPoint" />
          </mxGeometry>
        </mxCell>
        <mxCell id="ES6JpQluD08p2QjP8f1x-48" value="3. Devuelve listado de encuestas" style="text;html=1;align=center;verticalAlign=middle;whiteSpace=wrap;rounded=0;" vertex="1" parent="1">
          <mxGeometry x="355" y="240" width="120" height="20" as="geometry" />
        </mxCell>
        <mxCell id="ES6JpQluD08p2QjP8f1x-49" value="" style="endArrow=classic;html=1;rounded=0;fontSize=12;startSize=8;endSize=8;curved=0;" edge="1" parent="1" target="ES6JpQluD08p2QjP8f1x-54">
          <mxGeometry width="50" height="50" relative="1" as="geometry">
            <mxPoint x="511.25" y="270" as="sourcePoint" />
            <mxPoint x="315" y="410" as="targetPoint" />
            <Array as="points" />
          </mxGeometry>
        </mxCell>
        <mxCell id="ES6JpQluD08p2QjP8f1x-50" value="" style="endArrow=none;dashed=1;html=1;rounded=0;entryX=0.5;entryY=1;entryDx=0;entryDy=0;exitX=0.5;exitY=0;exitDx=0;exitDy=0;" edge="1" parent="1" source="ES6JpQluD08p2QjP8f1x-40">
          <mxGeometry width="50" height="50" relative="1" as="geometry">
            <mxPoint x="515.62" y="630" as="sourcePoint" />
            <mxPoint x="515.62" y="310" as="targetPoint" />
          </mxGeometry>
        </mxCell>
        <mxCell id="ES6JpQluD08p2QjP8f1x-51" value="" style="html=1;points=[[0,0,0,0,5],[0,1,0,0,-5],[1,0,0,0,5],[1,1,0,0,-5]];perimeter=orthogonalPerimeter;outlineConnect=0;targetShapes=umlLifeline;portConstraint=eastwest;newEdgeStyle={&quot;curved&quot;:0,&quot;rounded&quot;:0};" vertex="1" parent="1">
          <mxGeometry x="301.87" y="150" width="10" height="40" as="geometry" />
        </mxCell>
        <mxCell id="ES6JpQluD08p2QjP8f1x-52" value="" style="endArrow=none;dashed=1;html=1;rounded=0;entryX=0.5;entryY=1;entryDx=0;entryDy=0;" edge="1" parent="1" target="ES6JpQluD08p2QjP8f1x-53">
          <mxGeometry width="50" height="50" relative="1" as="geometry">
            <mxPoint x="515.62" y="310" as="sourcePoint" />
            <mxPoint x="515.62" y="220" as="targetPoint" />
          </mxGeometry>
        </mxCell>
        <mxCell id="ES6JpQluD08p2QjP8f1x-53" value="" style="html=1;points=[[0,0,0,0,5],[0,1,0,0,-5],[1,0,0,0,5],[1,1,0,0,-5]];perimeter=orthogonalPerimeter;outlineConnect=0;targetShapes=umlLifeline;portConstraint=eastwest;newEdgeStyle={&quot;curved&quot;:0,&quot;rounded&quot;:0};" vertex="1" parent="1">
          <mxGeometry x="511.25" y="195" width="10" height="40" as="geometry" />
        </mxCell>
        <mxCell id="ES6JpQluD08p2QjP8f1x-54" value="" style="html=1;points=[[0,0,0,0,5],[0,1,0,0,-5],[1,0,0,0,5],[1,1,0,0,-5]];perimeter=orthogonalPerimeter;outlineConnect=0;targetShapes=umlLifeline;portConstraint=eastwest;newEdgeStyle={&quot;curved&quot;:0,&quot;rounded&quot;:0};" vertex="1" parent="1">
          <mxGeometry x="302.5" y="250" width="10" height="40" as="geometry" />
        </mxCell>
        <mxCell id="ES6JpQluD08p2QjP8f1x-55" value="" style="endArrow=classic;html=1;rounded=0;fontSize=12;startSize=8;endSize=8;entryX=1;entryY=0;entryDx=0;entryDy=5;entryPerimeter=0;" edge="1" parent="1" target="ES6JpQluD08p2QjP8f1x-57">
          <mxGeometry width="50" height="50" relative="1" as="geometry">
            <mxPoint x="300" y="335" as="sourcePoint" />
            <mxPoint x="713.62" y="340" as="targetPoint" />
          </mxGeometry>
        </mxCell>
        <mxCell id="ES6JpQluD08p2QjP8f1x-56" value="4. Mostrar listado de encuestas" style="text;html=1;align=center;verticalAlign=middle;whiteSpace=wrap;rounded=0;" vertex="1" parent="1">
          <mxGeometry x="142.44" y="310" width="145" height="20" as="geometry" />
        </mxCell>
        <mxCell id="ES6JpQluD08p2QjP8f1x-57" value="" style="html=1;points=[[0,0,0,0,5],[0,1,0,0,-5],[1,0,0,0,5],[1,1,0,0,-5]];perimeter=orthogonalPerimeter;outlineConnect=0;targetShapes=umlLifeline;portConstraint=eastwest;newEdgeStyle={&quot;curved&quot;:0,&quot;rounded&quot;:0};" vertex="1" parent="1">
          <mxGeometry x="110.62" y="330" width="10" height="180" as="geometry" />
        </mxCell>
        <mxCell id="ES6JpQluD08p2QjP8f1x-58" value="" style="endArrow=classic;html=1;rounded=0;" edge="1" parent="1">
          <mxGeometry width="50" height="50" relative="1" as="geometry">
            <mxPoint x="302.5" y="380" as="sourcePoint" />
            <mxPoint x="121.06" y="380" as="targetPoint" />
          </mxGeometry>
        </mxCell>
        <mxCell id="ES6JpQluD08p2QjP8f1x-59" value="4.1. Crear encuesta" style="text;html=1;align=center;verticalAlign=middle;whiteSpace=wrap;rounded=0;" vertex="1" parent="1">
          <mxGeometry x="130.62" y="360" width="170" height="20" as="geometry" />
        </mxCell>
        <mxCell id="ES6JpQluD08p2QjP8f1x-60" value="" style="endArrow=classic;html=1;rounded=0;" edge="1" parent="1">
          <mxGeometry width="50" height="50" relative="1" as="geometry">
            <mxPoint x="302.5" y="420" as="sourcePoint" />
            <mxPoint x="121.06" y="420" as="targetPoint" />
          </mxGeometry>
        </mxCell>
        <mxCell id="ES6JpQluD08p2QjP8f1x-61" value="4.2. Visualizar porcentaje de encuesta" style="text;html=1;align=center;verticalAlign=middle;whiteSpace=wrap;rounded=0;" vertex="1" parent="1">
          <mxGeometry x="129.94" y="390" width="170" height="20" as="geometry" />
        </mxCell>
        <mxCell id="ES6JpQluD08p2QjP8f1x-62" value="" style="endArrow=classic;html=1;rounded=0;" edge="1" parent="1">
          <mxGeometry width="50" height="50" relative="1" as="geometry">
            <mxPoint x="302.5" y="460" as="sourcePoint" />
            <mxPoint x="121.06" y="460" as="targetPoint" />
          </mxGeometry>
        </mxCell>
        <mxCell id="ES6JpQluD08p2QjP8f1x-63" value="4.3. Personalizar preguntas de encuesta" style="text;html=1;align=center;verticalAlign=middle;whiteSpace=wrap;rounded=0;" vertex="1" parent="1">
          <mxGeometry x="132.5" y="430" width="170" height="20" as="geometry" />
        </mxCell>
        <mxCell id="ES6JpQluD08p2QjP8f1x-64" value="" style="endArrow=classic;html=1;rounded=0;entryX=0;entryY=0;entryDx=0;entryDy=5;entryPerimeter=0;" edge="1" parent="1" source="ES6JpQluD08p2QjP8f1x-57" target="ES6JpQluD08p2QjP8f1x-75">
          <mxGeometry width="50" height="50" relative="1" as="geometry">
            <mxPoint x="302.5" y="570" as="sourcePoint" />
            <mxPoint x="710.62" y="570" as="targetPoint" />
          </mxGeometry>
        </mxCell>
        <mxCell id="ES6JpQluD08p2QjP8f1x-65" value="4.4. Diligenciar encuesta de satisfacciÃ³n" style="text;html=1;align=center;verticalAlign=middle;whiteSpace=wrap;rounded=0;" vertex="1" parent="1">
          <mxGeometry x="530.62" y="460" width="170" height="20" as="geometry" />
        </mxCell>
        <mxCell id="ES6JpQluD08p2QjP8f1x-66" value="Usuario" style="html=1;whiteSpace=wrap;" vertex="1" parent="1">
          <mxGeometry x="660.62" y="60" width="110" height="50" as="geometry" />
        </mxCell>
        <mxCell id="ES6JpQluD08p2QjP8f1x-67" value="Usuario" style="html=1;whiteSpace=wrap;" vertex="1" parent="1">
          <mxGeometry x="660" y="590" width="110" height="50" as="geometry" />
        </mxCell>
        <mxCell id="ES6JpQluD08p2QjP8f1x-72" value="" style="endArrow=none;dashed=1;html=1;rounded=0;entryX=0.5;entryY=1;entryDx=0;entryDy=0;exitX=0.5;exitY=0;exitDx=0;exitDy=0;" edge="1" parent="1" source="ES6JpQluD08p2QjP8f1x-75" target="ES6JpQluD08p2QjP8f1x-66">
          <mxGeometry width="50" height="50" relative="1" as="geometry">
            <mxPoint x="715.62" y="700" as="sourcePoint" />
            <mxPoint x="715.6199999999999" y="370" as="targetPoint" />
            <Array as="points" />
          </mxGeometry>
        </mxCell>
        <mxCell id="ES6JpQluD08p2QjP8f1x-74" value="" style="endArrow=none;dashed=1;html=1;rounded=0;entryX=0.5;entryY=1;entryDx=0;entryDy=0;exitX=0.5;exitY=0;exitDx=0;exitDy=0;" edge="1" parent="1" source="ES6JpQluD08p2QjP8f1x-67" target="ES6JpQluD08p2QjP8f1x-75">
          <mxGeometry width="50" height="50" relative="1" as="geometry">
            <mxPoint x="714.62" y="630" as="sourcePoint" />
            <mxPoint x="715.62" y="370" as="targetPoint" />
            <Array as="points">
              <mxPoint x="715.62" y="510" />
            </Array>
          </mxGeometry>
        </mxCell>
        <mxCell id="ES6JpQluD08p2QjP8f1x-75" value="" style="html=1;points=[[0,0,0,0,5],[0,1,0,0,-5],[1,0,0,0,5],[1,1,0,0,-5]];perimeter=orthogonalPerimeter;outlineConnect=0;targetShapes=umlLifeline;portConstraint=eastwest;newEdgeStyle={&quot;curved&quot;:0,&quot;rounded&quot;:0};" vertex="1" parent="1">
          <mxGeometry x="710" y="480" width="10" height="40" as="geometry" />
        </mxCell>
      </root>
    </mxGraphModel>
  </diagram>
</mxfile>
